<svg xmlns="http://www.w3.org/2000/svg" width="300" height="300" viewBox="0 0 300 300">
  <g fill="none" stroke="#d6cdbf" stroke-opacity="0.55" stroke-width="1.4" stroke-linecap="round" stroke-linejoin="round">
    <!-- chat bubble -->
    <path d="M24 30h34a6 6 0 0 1 6 6v18a6 6 0 0 1-6 6H40l-9 8v-8h-7a6 6 0 0 1-6-6V36a6 6 0 0 1 6-6z"/>
    <!-- heart -->
    <path d="M120 40c-4-8-16-7-16 2 0 7 16 16 16 16s16-9 16-16c0-9-12-10-16-2z"/>
    <!-- smiley -->
    <circle cx="206" cy="44" r="15"/>
    <circle cx="201" cy="40" r="1.4" fill="#d6cdbf" stroke="none"/>
    <circle cx="211" cy="40" r="1.4" fill="#d6cdbf" stroke="none"/>
    <path d="M199 48a9 9 0 0 0 14 0"/>
    <!-- phone -->
    <rect x="258" y="26" width="20" height="34" rx="4"/>
    <path d="M264 31h8M266 55h4"/>
    <!-- camera -->
    <path d="M30 110h8l3-5h12l3 5h8a4 4 0 0 1 4 4v18a4 4 0 0 1-4 4H30a4 4 0 0 1-4-4v-18a4 4 0 0 1 4-4z"/>
    <circle cx="53" cy="123" r="7"/>
    <!-- music note -->
    <path d="M118 100v26"/>
    <path d="M118 100c8-2 16-3 16 2"/>
    <circle cx="114" cy="128" r="5"/>
    <!-- paper plane -->
    <path d="M196 104l24 10-24 10 5-10z"/>
    <path d="M201 114l19-0"/>
    <!-- sun -->
    <circle cx="266" cy="120" r="9"/>
    <path d="M266 104v5M266 131v5M250 120h5M282 120h-5M255 109l4 4M277 131l-4-4M255 131l4-4M277 109l-4 4"/>
    <!-- coffee cup -->
    <path d="M28 188h26v14a8 8 0 0 1-8 8H36a8 8 0 0 1-8-8z"/>
    <path d="M54 192h6a5 5 0 0 1 0 10h-6"/>
    <path d="M34 180c0-4 4-4 4-8M44 180c0-4 4-4 4-8"/>
    <!-- star -->
    <path d="M124 178l4 9 10 1-7 7 2 10-9-5-9 5 2-10-7-7 10-1z"/>
    <!-- location pin -->
    <path d="M206 176c-8 0-13 6-13 13 0 9 13 21 13 21s13-12 13-21c0-7-5-13-13-13z"/>
    <circle cx="206" cy="189" r="4"/>
    <!-- gift -->
    <rect x="258" y="186" width="26" height="20" rx="2"/>
    <path d="M258 192h26M271 186v20"/>
    <path d="M271 186c-6-6-12 0-6 4M271 186c6-6 12 0 6 4"/>
    <!-- balloon -->
    <ellipse cx="44" cy="256" rx="11" ry="14"/>
    <path d="M44 270v10M41 280h6"/>
    <!-- clock -->
    <circle cx="128" cy="258" r="15"/>
    <path d="M128 248v10l7 4"/>
    <!-- leaf -->
    <path d="M198 246c14 0 22 8 22 22-14 0-22-8-22-22z"/>
    <path d="M198 246c8 8 14 14 22 22"/>
    <!-- microphone -->
    <rect x="266" y="244" width="10" height="18" rx="5"/>
    <path d="M261 258a10 10 0 0 0 20 0M271 268v6M266 274h10"/>
  </g>
</svg>
